<svg width="24" height="24" viewBox="0 0 24 24" fill="none" xmlns="http://www.w3.org/2000/svg">
<g clip-path="url(#clip0_243_22)">
<path d="M24 14.8052V10.0134H21.0326L14.0085 3.52311C14.0873 3.30078 14.1307 3.06177 14.1307 2.81269C14.1307 1.63783 13.1749 0.682007 12 0.682007C10.8251 0.682007 9.86932 1.63783 9.86932 2.81269C9.86932 3.06174 9.91267 3.30078 9.99155 3.52311L2.96739 10.0134H0V14.8052H0.838911L3.75375 23.3181H20.2462L23.161 14.8052H24V14.8052ZM15.903 17.3536H12.8412V14.8284H16.1524L15.903 17.3536ZM11.1588 21.6356H8.5198L8.2631 19.0361H11.1588V21.6356ZM8.09698 17.3536L7.84763 14.8284H11.1588V17.3536H8.09698ZM12.4482 2.81269C12.4482 2.94261 12.3923 3.05944 12.3037 3.14136C12.2238 3.21529 12.1172 3.26089 12 3.26089C11.8828 3.26089 11.7763 3.21529 11.6963 3.14136C11.6077 3.05942 11.5518 2.94261 11.5518 2.81269C11.5518 2.68277 11.6077 2.56593 11.6963 2.48401C11.7762 2.41008 11.8828 2.36448 12 2.36448C12.1172 2.36448 12.2237 2.41008 12.3037 2.48401C12.3923 2.56596 12.4482 2.68277 12.4482 2.81269ZM11.1336 4.75857C11.3985 4.87698 11.6916 4.94339 12 4.94339C12.3084 4.94339 12.6015 4.87698 12.8664 4.75857L18.5535 10.0135H5.44657L11.1336 4.75857ZM1.68247 11.6959H22.3175V13.1227H1.68247V11.6959ZM6.15699 14.8284L6.40634 17.3537H3.4899L2.62525 14.8284H6.15699ZM4.95605 21.6356L4.06597 19.0361H6.57249L6.82916 21.6356H4.95605ZM12.8412 19.0361H15.7369L15.4802 21.6356H12.8412V19.0361ZM19.044 21.6356H17.1708L17.4275 19.0361H19.934L19.044 21.6356ZM20.5101 17.3536H17.5937L17.843 14.8284H21.3748L20.5101 17.3536Z" fill="#0C0D36"/>
</g>
<defs>
<clipPath id="clip0_243_22">
<rect width="24" height="24" fill="white"/>
</clipPath>
</defs>
</svg>
